<?xml version="1.0" encoding="UTF-8"?>
<svg version="1.1" xmlns="http://www.w3.org/2000/svg" width="171" height="63">
<path d="M0 0 C56.43 0 112.86 0 171 0 C171 20.79 171 41.58 171 63 C114.57 63 58.14 63 0 63 C0 42.21 0 21.42 0 0 Z " fill="#FCFDFD" transform="translate(0,0)"/>
<path d="M0 0 C3.75212276 2.01502889 5.63644095 3.45466142 8 7 C8.66624845 11.07463524 8.94496094 15.24356703 6.94921875 18.953125 C4.54320128 21.87725242 2.58991965 23.8030188 -1.20703125 24.2734375 C-8.28722953 24.54942724 -8.28722953 24.54942724 -12 21.6875 C-15.52226941 16.95445048 -16.7384629 13.89616472 -16 8 C-13.04249456 0.99538184 -7.37121554 -1.3271073 0 0 Z " fill="#0A3143" transform="translate(117,23)"/>
<path d="M0 0 C3.75212276 2.01502889 5.63644095 3.45466142 8 7 C8.66624845 11.07463524 8.94496094 15.24356703 6.94921875 18.953125 C4.54320128 21.87725242 2.58991965 23.8030188 -1.20703125 24.2734375 C-8.28722953 24.54942724 -8.28722953 24.54942724 -12 21.6875 C-15.52226941 16.95445048 -16.7384629 13.89616472 -16 8 C-13.04249456 0.99538184 -7.37121554 -1.3271073 0 0 Z " fill="#093042" transform="translate(65,23)"/>
<path d="M0 0 C2.31 0 4.62 0 7 0 C7.33 0.66 7.66 1.32 8 2 C8.99 1.34 9.98 0.68 11 0 C14.8973724 -0.50835292 16.50556726 -0.32962183 19.8125 1.875 C22.93399574 4.90731015 22.93399574 4.90731015 23.11352539 7.87939453 C23.10828857 8.62302246 23.10305176 9.36665039 23.09765625 10.1328125 C23.09443359 10.93847656 23.09121094 11.74414062 23.08789062 12.57421875 C23.07951172 13.41597656 23.07113281 14.25773437 23.0625 15.125 C23.05798828 15.97449219 23.05347656 16.82398437 23.04882812 17.69921875 C23.03702874 19.79950909 23.01909306 21.8997633 23 24 C20.69 24 18.38 24 16 24 C15.67 18.72 15.34 13.44 15 8 C10.52297636 6.93462795 10.52297636 6.93462795 8 7 C7.67 12.61 7.34 18.22 7 24 C4.69 24 2.38 24 0 24 C0 16.08 0 8.16 0 0 Z " fill="#062D3F" transform="translate(23,23)"/>
<path d="M0 0 C0 1.98 0 3.96 0 6 C-0.99 6.33 -1.98 6.66 -3 7 C-3.33 7.66 -3.66 8.32 -4 9 C-2.68 9 -1.36 9 0 9 C0 10.98 0 12.96 0 15 C-1.32 15 -2.64 15 -4 15 C-4 20.94 -4 26.88 -4 33 C-6.31 33 -8.62 33 -11 33 C-11 27.06 -11 21.12 -11 15 C-11.99 15 -12.98 15 -14 15 C-14 13.02 -14 11.04 -14 9 C-13.01 9 -12.02 9 -11 9 C-10.9175 8.071875 -10.835 7.14375 -10.75 6.1875 C-10 3 -10 3 -8.3125 1.125 C-5.40422845 -0.28983481 -3.19384754 -0.21776233 0 0 Z " fill="#082F41" transform="translate(141,14)"/>
<path d="M0 0 C2.31 0 4.62 0 7 0 C7 1.65 7 3.3 7 5 C8.65 5 10.3 5 12 5 C12 6.98 12 8.96 12 11 C10.35 11 8.7 11 7 11 C7.33 14.63 7.66 18.26 8 22 C9.32 22.33 10.64 22.66 12 23 C12 24.98 12 26.96 12 29 C5.66169154 29.36567164 5.66169154 29.36567164 2.625 27.6875 C-0.48738752 24.45540527 -0.1081941 21.06205161 -0.0625 16.8125 C-0.05347656 15.72582031 -0.04445312 14.63914062 -0.03515625 13.51953125 C-0.02355469 12.68808594 -0.01195312 11.85664063 0 11 C-0.99 11 -1.98 11 -3 11 C-3 9.02 -3 7.04 -3 5 C-2.01 5 -1.02 5 0 5 C0 3.35 0 1.7 0 0 Z " fill="#092F41" transform="translate(146,18)"/>
<path d="M0 0 C0 2.31 0 4.62 0 7 C-0.99 7.495 -0.99 7.495 -2 8 C-2.2502157 10.91634129 -2.2502157 10.91634129 -2 14 C-1.01 14.66 -0.02 15.32 1 16 C1.1875 19.625 1.1875 19.625 1 23 C-2.64629065 22.74560763 -4.79218363 22.13553242 -7.875 20.125 C-10.98903659 15.54553443 -10.89712819 11.38276913 -10 6 C-7.16019896 1.26699827 -5.52784552 0 0 0 Z " fill="#0C3244" transform="translate(98,24)"/>
<path d="M0 0 C2.84547945 1.65502376 5.01682614 3.35576819 7 6 C7.98528604 10.16895598 7.94109877 13.82494363 7 18 C5.23774868 20.72669259 3.64376238 22.01717821 1 24 C-2.16115776 22.63016497 -2.9927092 22.0109362 -5 19 C-2.69 16.36 -0.38 13.72 2 11 C0.68 10.34 -0.64 9.68 -2 9 C-3.75 6.875 -3.75 6.875 -5 5 C-3.35 3.35 -1.7 1.7 0 0 Z " fill="#0C3244" transform="translate(79,23)"/>
<path d="M0 0 C2.31 0 4.62 0 7 0 C7 7.92 7 15.84 7 24 C4.69 24 2.38 24 0 24 C0 16.08 0 8.16 0 0 Z " fill="#093042" transform="translate(12,23)"/>
<path d="M0 0 C1.423125 0.4021875 1.423125 0.4021875 2.875 0.8125 C4.27435013 3.61120027 4.12765405 5.71748792 3.875 8.8125 C2.6875 10.75 2.6875 10.75 0.875 11.8125 C-1.6875 11.6875 -1.6875 11.6875 -4.125 10.8125 C-6.28002531 7.57996204 -6.59356135 6.56099077 -6.125 2.8125 C-4.327529 -0.183285 -3.52310929 -0.21138656 0 0 Z " fill="#E9EDEE" transform="translate(62.125,29.1875)"/>
<path d="M0 0 C3.0625 0.25 3.0625 0.25 6 1 C7.39935013 3.79870027 7.25265405 5.90498792 7 9 C5.8125 10.9375 5.8125 10.9375 4 12 C-0.42105263 11.57894737 -0.42105263 11.57894737 -2 10 C-2.27314815 4.26388889 -2.27314815 4.26388889 -2 2 C-1.34 1.34 -0.68 0.68 0 0 Z " fill="#F0F2F3" transform="translate(111,29)"/>
<path d="M0 0 C4.70588235 0.70588235 4.70588235 0.70588235 6 2 C6.04063832 3.66617115 6.042721 5.33388095 6 7 C3.6875 7.6875 3.6875 7.6875 1 8 C-0.875 6.8125 -0.875 6.8125 -2 5 C-1.74853421 2.86254078 -1.54074221 1.54074221 0 0 Z " fill="#103648" transform="translate(13,13)"/>
</svg>
